# xmcd
#
# Track frame offsets: 
#        150
#        16450
#        34087
#        51198
#        69813
#        88129
#        105513
#        124099
#        142402
#        160700
#        185527
#        205316
#        223978
#        238912
#
# Disc length: 3482 seconds
#
# Revision: 0
# Processed by: cddbd v1.5.2PL0 Copyright (c) Steve Scherf et al.
# Submitted via: ExactAudioCopyFreeDBPlugin 1.0
#
DISCID=d00d980e
DTITLE=Avani - The Real Thing
DYEAR=2004
DGENRE=R&B
TTITLE0=Phoenix(Rise Up)
TTITLE1=The Waithing's Over
TTITLE2=Something One My Mind
TTITLE3=Things U Worry
TTITLE4=Don't U Worry
TTITLE5=2 Luv U
TTITLE6=Best Friend's Lover
TTITLE7=Heads Up
TTITLE8=Watching You
TTITLE9=Lover's Theme
TTITLE10=Teardrops
TTITLE11=The Real Thing
TTITLE12=I'm Not Thing
TTITLE13=Heads UP(Atomic Dread Remix)
EXTD=
EXTT0=
EXTT1=
EXTT2=
EXTT3=
EXTT4=
EXTT5=
EXTT6=
EXTT7=
EXTT8=
EXTT9=
EXTT10=
EXTT11=
EXTT12=
EXTT13=
PLAYORDER=
